<?xml version="1.0" encoding="utf-8"?>
<!-- Generator: Adobe Illustrator 15.0.0, SVG Export Plug-In  -->
<!DOCTYPE svg PUBLIC "-//W3C//DTD SVG 1.1//EN" "http://www.w3.org/Graphics/SVG/1.1/DTD/svg11.dtd" [
	<!ENTITY ns_flows "http://ns.adobe.com/Flows/1.0/">
]>
<svg version="1.1"
	 xmlns="http://www.w3.org/2000/svg" xmlns:xlink="http://www.w3.org/1999/xlink" xmlns:a="http://ns.adobe.com/AdobeSVGViewerExtensions/3.0/"
	 x="0px" y="0px" width="331px" height="190px" viewBox="0 0 331 190" enable-background="new 0 0 331 190" xml:space="preserve">
<defs>
</defs>
<g>
	<defs>
		<rect id="SVGID_1_" width="330.742" height="190.437"/>
	</defs>
	<clipPath id="SVGID_2_">
		<use xlink:href="#SVGID_1_"  overflow="visible"/>
	</clipPath>
	<path clip-path="url(#SVGID_2_)" fill="#F6871F" d="M172.303,62.741l-23.746-23.907c0.029-8.319,6.801-15.041,15.121-15.01
		c8.323,0.029,15.045,6.797,15.014,15.115l23.744,23.907c-0.071,21.476-17.549,38.824-39.031,38.747
		c-21.483-0.072-38.836-17.543-38.76-39.021l0.062-18.218l18.159,18.28c-0.042,11.416,9.185,20.704,20.601,20.745
		c11.418,0.04,20.709-9.18,20.748-20.596l-23.744-23.908c0.006-1.739,1.422-3.147,3.164-3.141c1.744,0.008,3.15,1.424,3.145,3.162
		l23.744,23.908c-0.053,14.897-12.174,26.932-27.08,26.879c-14.9-0.05-26.938-12.174-26.885-27.07l-5.584-5.626l-0.02,5.608
		c-0.066,17.991,14.471,32.63,32.471,32.694s32.641-14.472,32.703-32.463l-23.74-23.908c0.016-4.837-3.893-8.774-8.732-8.791
		c-4.838-0.018-8.774,3.892-8.793,8.729l23.746,23.905c-0.027,8.321-6.801,15.039-15.121,15.012
		c-8.324-0.03-15.045-6.797-15.016-15.117l-23.744-23.907C124.805,17.272,142.282-0.075,163.762,0
		c21.482,0.078,38.834,17.546,38.76,39.022l-0.066,18.219L184.301,38.96c0.041-11.416-9.184-20.702-20.602-20.743
		c-11.417-0.041-20.707,9.18-20.75,20.596l23.747,23.907c-0.006,1.74-1.424,3.147-3.166,3.141c-1.743-0.007-3.151-1.424-3.143-3.164
		l-23.744-23.907c0.053-14.899,12.178-26.933,27.08-26.879c14.9,0.053,26.938,12.173,26.885,27.069l5.588,5.626l0.02-5.604
		c0.064-17.994-14.474-32.629-32.473-32.695c-18-0.063-32.642,14.472-32.705,32.463l23.743,23.906
		c-0.018,4.836,3.892,8.773,8.73,8.791C168.348,71.484,172.285,67.576,172.303,62.741"/>
	<path clip-path="url(#SVGID_2_)" fill="#5A4A42" d="M0.003,149.257c1.755-0.134,2.843-0.443,3.267-0.927
		c0.421-0.483,0.635-1.638,0.642-3.466l0.066-18.7c0.006-1.56-0.226-2.569-0.694-3.027c-0.468-0.458-1.53-0.747-3.185-0.865
		l0.003-0.8l12.271,0.043l-0.003,0.8c-1.684,0.078-2.772,0.355-3.265,0.831c-0.494,0.475-0.742,1.483-0.748,3.026l-0.031,8.835
		c2.662-2.254,4.84-4.172,6.531-5.754c3.031-2.859,4.547-4.694,4.55-5.506c0.002-0.574-0.253-0.953-0.764-1.137
		c-0.512-0.185-1.24-0.277-2.181-0.281l0.003-0.8l11.295,0.04l-0.003,0.8c-1.378,0.132-2.465,0.393-3.26,0.785
		c-0.795,0.392-1.899,1.252-3.308,2.581l-8.443,7.771l10.228,11.128c1.862,2,3.129,3.249,3.802,3.746
		c0.673,0.497,1.663,0.824,2.969,0.982l-0.003,0.736l-13.185-0.046l0.003-0.737c1.193-0.039,2.001-0.13,2.422-0.275
		c0.422-0.146,0.634-0.438,0.635-0.874c0.001-0.238-0.135-0.604-0.407-1.099c-0.271-0.492-0.702-1.063-1.289-1.713l-8.271-9
		l-1.333,1.229l-0.028,7.803c-0.006,1.603,0.232,2.618,0.715,3.05c0.483,0.43,1.538,0.719,3.165,0.864l-0.003,0.737L0,149.995
		L0.003,149.257z"/>
	<path clip-path="url(#SVGID_2_)" fill="#5A4A42" d="M30.879,150.103l0.003-0.663c0.92-0.101,1.61-0.445,2.073-1.032
		c0.462-0.586,1.256-2.193,2.381-4.82l7.515-17.528l0.713,0.003l8.84,20.311c0.589,1.346,1.06,2.178,1.415,2.496
		c0.354,0.32,0.95,0.539,1.788,0.659l-0.003,0.663l-9.097-0.033l0.003-0.663c1.046-0.089,1.721-0.199,2.024-0.332
		c0.302-0.131,0.455-0.458,0.457-0.979c0-0.174-0.057-0.482-0.171-0.923c-0.115-0.44-0.277-0.904-0.484-1.393l-1.421-3.445
		l-9.427-0.033c-0.937,2.337-1.497,3.763-1.679,4.278c-0.182,0.516-0.274,0.923-0.275,1.225c-0.003,0.602,0.241,1.021,0.728,1.254
		c0.301,0.14,0.87,0.247,1.707,0.319l-0.003,0.663L30.879,150.103z M46.318,140.97l-4.065-9.865l-4.153,9.837L46.318,140.97z"/>
	<path clip-path="url(#SVGID_2_)" fill="#5A4A42" d="M56.59,149.531c1.479-0.146,2.431-0.478,2.851-0.994
		c0.42-0.516,0.635-1.716,0.642-3.602l0.051-14.521c0.005-1.291-0.196-2.133-0.603-2.524c-0.406-0.391-1.331-0.625-2.774-0.699
		l0.002-0.664l7.052,0.024l8.153,17.849l8.077-17.79l7.11,0.025l-0.002,0.664c-1.329,0.088-2.185,0.326-2.571,0.714
		c-0.386,0.389-0.58,1.218-0.585,2.486l-0.055,15.899c-0.005,1.303,0.183,2.139,0.566,2.507c0.383,0.367,1.238,0.612,2.565,0.732
		l-0.002,0.663l-10.008-0.034l0.003-0.664c1.443-0.11,2.343-0.367,2.701-0.767c0.356-0.4,0.537-1.356,0.542-2.869l0.056-16.057
		l-9.233,20.335l-0.488-0.001l-8.936-19.563l-0.05,14.26c-0.007,1.955,0.274,3.229,0.843,3.824c0.37,0.387,1.202,0.651,2.494,0.796
		l-0.003,0.662l-8.401-0.028L56.59,149.531z"/>
	<path clip-path="url(#SVGID_2_)" fill="#5A4A42" d="M88.571,149.644c1.363-0.122,2.214-0.389,2.554-0.8
		c0.338-0.409,0.511-1.351,0.516-2.822l0.054-15.493c0.005-1.247-0.181-2.067-0.558-2.465s-1.206-0.65-2.486-0.76l0.001-0.664
		l9.433,0.033c3.027,0.011,5.343,0.606,6.945,1.789c1.604,1.182,2.401,2.732,2.394,4.655c-0.009,2.434-0.905,4.194-2.691,5.282
		c-1.785,1.088-4.017,1.628-6.695,1.618c-0.385-0.001-0.877-0.012-1.476-0.031c-0.6-0.02-1.045-0.029-1.336-0.03l-0.023,6.497
		c-0.005,1.344,0.2,2.189,0.611,2.538c0.412,0.35,1.334,0.578,2.766,0.688l-0.003,0.664l-10.008-0.035L88.571,149.644z
		 M100.715,128.674c-1.011-0.446-2.292-0.672-3.841-0.678c-0.733-0.002-1.184,0.069-1.353,0.214
		c-0.17,0.146-0.255,0.468-0.257,0.969l-0.033,9.327c0.64,0.061,1.059,0.097,1.257,0.108c0.198,0.013,0.39,0.02,0.577,0.021
		c1.641,0.006,2.935-0.223,3.879-0.687c1.714-0.843,2.577-2.429,2.585-4.758C103.537,131.001,102.599,129.497,100.715,128.674"/>
	<path clip-path="url(#SVGID_2_)" fill="#5A4A42" d="M105.13,150.367l0.002-0.664c0.92-0.101,1.611-0.444,2.074-1.031
		c0.462-0.588,1.257-2.193,2.382-4.821l7.514-17.528l0.713,0.003l8.84,20.311c0.589,1.346,1.06,2.178,1.415,2.497
		c0.354,0.32,0.95,0.539,1.788,0.658l-0.003,0.663l-9.097-0.032l0.003-0.663c1.046-0.09,1.721-0.2,2.024-0.332
		c0.303-0.133,0.455-0.459,0.457-0.98c0-0.174-0.057-0.48-0.171-0.922c-0.115-0.441-0.277-0.905-0.484-1.393l-1.421-3.446
		l-9.427-0.033c-0.937,2.338-1.497,3.764-1.679,4.278c-0.182,0.516-0.274,0.923-0.275,1.225c-0.003,0.603,0.241,1.021,0.728,1.254
		c0.301,0.141,0.87,0.247,1.707,0.319l-0.003,0.663L105.13,150.367z M120.569,141.233l-4.065-9.865l-4.153,9.837L120.569,141.233z"
		/>
	<path clip-path="url(#SVGID_2_)" fill="#5A4A42" d="M130.839,149.793c1.316-0.134,2.17-0.365,2.561-0.694
		c0.392-0.329,0.59-1.165,0.595-2.508l0.056-15.912c0.005-1.27-0.185-2.101-0.567-2.492c-0.383-0.391-1.239-0.635-2.566-0.733
		l0.002-0.664l10.096,0.036l-0.002,0.664c-1.316,0.065-2.198,0.277-2.649,0.637c-0.449,0.359-0.676,1.133-0.68,2.32l-0.061,17.188
		c-0.002,0.396,0.065,0.708,0.197,0.936c0.134,0.228,0.428,0.37,0.882,0.431c0.269,0.036,0.551,0.061,0.849,0.072
		c0.297,0.014,0.853,0.021,1.67,0.023c3.182,0.011,5.334-0.242,6.455-0.763c1.121-0.521,2.21-1.855,3.267-4.006l0.91,0.003
		l-1.772,6.195l-19.246-0.068L130.839,149.793z"/>
	<path clip-path="url(#SVGID_2_)" fill="#5A4A42" d="M152.813,150.535l0.002-0.663c0.92-0.101,1.611-0.444,2.074-1.032
		c0.462-0.586,1.256-2.193,2.381-4.82l7.515-17.528l0.713,0.003l8.84,20.311c0.589,1.346,1.061,2.178,1.415,2.497
		s0.95,0.538,1.788,0.658l-0.003,0.663l-9.097-0.033l0.003-0.662c1.046-0.09,1.721-0.2,2.023-0.333
		c0.302-0.132,0.455-0.458,0.457-0.979c0-0.174-0.057-0.481-0.171-0.923c-0.115-0.44-0.277-0.904-0.484-1.392l-1.421-3.446
		l-9.427-0.033c-0.937,2.337-1.497,3.763-1.679,4.278c-0.182,0.516-0.274,0.923-0.275,1.225c-0.003,0.603,0.241,1.021,0.728,1.254
		c0.301,0.141,0.87,0.247,1.707,0.319l-0.003,0.663L152.813,150.535z M168.252,141.402l-4.066-9.865l-4.152,9.837L168.252,141.402z"
		/>
	<path clip-path="url(#SVGID_2_)" fill="#5A4A42" d="M190.929,141.998c0.722,1.938,1.571,3.486,2.548,4.64
		c1.703,2.014,3.821,3.024,6.357,3.033c1.373,0.005,2.563-0.426,3.567-1.293c1.005-0.866,1.51-2.078,1.516-3.636
		c0.005-1.403-0.494-2.626-1.499-3.668c-0.656-0.662-2.04-1.656-4.149-2.983l-3.669-2.308c-1.104-0.705-1.984-1.417-2.642-2.136
		c-1.217-1.364-1.82-2.868-1.814-4.51c0.007-2.175,0.736-3.983,2.187-5.424s3.368-2.156,5.754-2.148
		c0.982,0.004,2.164,0.25,3.544,0.74c1.381,0.488,2.17,0.733,2.366,0.734c0.533,0.002,0.901-0.123,1.106-0.375
		c0.204-0.252,0.363-0.609,0.478-1.072l0.884,0.003l0.915,9.182l-1.031-0.005c-0.692-2.766-1.813-4.699-3.358-5.8
		c-1.547-1.1-3.077-1.652-4.593-1.659c-1.179-0.003-2.209,0.341-3.088,1.032c-0.88,0.691-1.321,1.655-1.326,2.89
		c-0.004,1.109,0.329,2.058,0.998,2.846c0.669,0.802,1.711,1.641,3.124,2.516l3.778,2.35c2.363,1.468,4.029,2.814,4.998,4.038
		c0.954,1.238,1.428,2.7,1.422,4.384c-0.008,2.26-0.867,4.144-2.577,5.652c-1.711,1.511-3.893,2.261-6.545,2.25
		c-1.333-0.004-2.725-0.261-4.176-0.771c-1.45-0.511-2.28-0.767-2.491-0.768c-0.505-0.002-0.847,0.152-1.022,0.459
		c-0.177,0.31-0.294,0.639-0.351,0.99l-0.947-0.004l-1.252-9.183L190.929,141.998z"/>
	<path clip-path="url(#SVGID_2_)" fill="#5A4A42" d="M212.498,150.083c1.316-0.134,2.17-0.365,2.563-0.694
		c0.391-0.329,0.589-1.165,0.594-2.508l0.056-15.912c0.005-1.27-0.185-2.1-0.566-2.491c-0.384-0.392-1.239-0.636-2.566-0.734
		l0.002-0.664l19.003,0.066l0.104,5.119l-0.908-0.003c-0.298-1.577-0.748-2.599-1.352-3.064c-0.604-0.467-1.953-0.702-4.049-0.71
		l-4.87-0.017c-0.525-0.002-0.85,0.081-0.974,0.249c-0.122,0.169-0.185,0.485-0.187,0.951l-0.028,7.982l5.52,0.02
		c1.525,0.005,2.499-0.217,2.918-0.667c0.421-0.451,0.763-1.364,1.022-2.742l0.839,0.003l-0.029,8.262l-0.839-0.003
		c-0.263-1.387-0.603-2.305-1.021-2.756c-0.416-0.449-1.382-0.677-2.896-0.682l-5.52-0.02l-0.031,8.855
		c-0.003,0.71,0.221,1.131,0.669,1.26s1.793,0.198,4.032,0.206c2.425,0.008,4.214-0.249,5.37-0.775
		c1.157-0.525,2.199-1.806,3.126-3.841l0.996,0.004l-1.646,6.037l-19.335-0.067L212.498,150.083z"/>
	<path clip-path="url(#SVGID_2_)" fill="#5A4A42" d="M234.35,150.16c1.374-0.122,2.23-0.386,2.57-0.791
		c0.338-0.403,0.512-1.347,0.516-2.831l0.055-15.492c0.005-1.258-0.182-2.083-0.558-2.474c-0.377-0.392-1.213-0.643-2.505-0.751
		l0.003-0.664l9.903,0.034c2.061,0.007,3.777,0.275,5.149,0.803c2.605,0.998,3.902,2.823,3.894,5.474
		c-0.007,1.779-0.591,3.144-1.752,4.093c-1.163,0.95-2.739,1.572-4.731,1.867l7.338,9.104c0.452,0.557,0.907,0.962,1.359,1.219
		c0.453,0.256,1.034,0.419,1.744,0.49l-0.003,0.664l-5.761-0.021l-8.909-11.053l-1.569,0.082l-0.024,7.05
		c-0.005,1.322,0.192,2.163,0.593,2.518c0.4,0.355,1.275,0.594,2.626,0.715l-0.003,0.663l-9.938-0.036L234.35,150.16z
		 M246.619,137.802c1.901-0.772,2.855-2.233,2.863-4.384c0.007-2.068-0.839-3.483-2.535-4.245c-0.907-0.409-2.112-0.617-3.614-0.623
		c-1.013-0.003-1.633,0.066-1.859,0.212c-0.229,0.144-0.343,0.482-0.345,1.019l-0.03,8.805
		C243.671,138.502,245.512,138.241,246.619,137.802"/>
	<path clip-path="url(#SVGID_2_)" fill="#5A4A42" d="M258.208,150.245c1.316-0.135,2.17-0.366,2.562-0.694
		c0.392-0.329,0.59-1.165,0.595-2.509l0.056-15.912c0.005-1.269-0.185-2.1-0.567-2.491s-1.238-0.636-2.565-0.733l0.002-0.664
		l19.004,0.067l0.104,5.118l-0.908-0.003c-0.298-1.578-0.748-2.6-1.352-3.064c-0.604-0.467-1.954-0.702-4.05-0.71l-4.87-0.018
		c-0.525-0.002-0.85,0.082-0.974,0.25c-0.122,0.168-0.185,0.485-0.187,0.951l-0.028,7.982l5.52,0.02
		c1.525,0.005,2.499-0.217,2.919-0.667c0.421-0.451,0.761-1.365,1.022-2.743l0.839,0.003l-0.029,8.262l-0.839-0.004
		c-0.263-1.385-0.603-2.303-1.021-2.754c-0.417-0.449-1.383-0.677-2.896-0.682l-5.52-0.02l-0.031,8.855
		c-0.003,0.71,0.221,1.13,0.669,1.26c0.448,0.129,1.793,0.198,4.032,0.206c2.425,0.008,4.215-0.25,5.371-0.775
		c1.157-0.525,2.199-1.806,3.126-3.842l0.994,0.005l-1.645,6.037l-19.336-0.067L258.208,150.245z"/>
	<path clip-path="url(#SVGID_2_)" fill="#5A4A42" d="M280.059,150.322c1.479-0.146,2.431-0.478,2.851-0.993
		c0.421-0.517,0.636-1.717,0.643-3.603l0.056-15.76l-0.488-0.578c-0.521-0.617-0.966-1.001-1.332-1.147s-0.914-0.232-1.649-0.259
		l0.002-0.664l6.104,0.021l13.747,17.164l0.042-11.887c0.008-1.955-0.279-3.229-0.859-3.821c-0.383-0.383-1.232-0.635-2.547-0.755
		l0.002-0.664l8.401,0.029l-0.002,0.664c-1.362,0.136-2.272,0.464-2.729,0.985c-0.457,0.523-0.688,1.722-0.694,3.597l-0.066,18.829
		l-0.611-0.002l-15.756-19.672l-0.048,13.926c-0.009,1.955,0.272,3.229,0.842,3.824c0.37,0.386,1.202,0.65,2.494,0.795l-0.003,0.662
		l-8.401-0.028L280.059,150.322z"/>
	<path clip-path="url(#SVGID_2_)" fill="#5A4A42" d="M306.015,151.078l0.003-0.664c0.92-0.101,1.61-0.443,2.073-1.032
		c0.462-0.586,1.257-2.192,2.382-4.82l7.515-17.528l0.713,0.003l8.839,20.311c0.589,1.346,1.06,2.178,1.415,2.497
		c0.354,0.32,0.95,0.539,1.788,0.658l-0.003,0.663l-9.096-0.032l0.003-0.663c1.046-0.089,1.721-0.2,2.023-0.332
		s0.455-0.459,0.457-0.98c0-0.174-0.057-0.48-0.171-0.922c-0.115-0.441-0.277-0.905-0.484-1.393l-1.421-3.446l-9.427-0.033
		c-0.937,2.338-1.497,3.764-1.679,4.278c-0.183,0.516-0.274,0.924-0.275,1.225c-0.003,0.603,0.241,1.021,0.729,1.254
		c0.301,0.141,0.87,0.247,1.707,0.319l-0.003,0.664L306.015,151.078z M321.454,141.945l-4.065-9.866l-4.152,9.837L321.454,141.945z"
		/>
	<path clip-path="url(#SVGID_2_)" fill="#5A4A42" d="M124.686,189.583c0.912-0.095,1.48-0.261,1.709-0.497
		c0.228-0.238,0.345-0.858,0.349-1.862l0.036-10.093c0.003-0.834-0.122-1.377-0.376-1.628c-0.254-0.252-0.809-0.409-1.666-0.473
		l0.002-0.433l6.463,0.023l-0.002,0.433c-0.853,0.058-1.408,0.211-1.664,0.46c-0.258,0.25-0.388,0.791-0.391,1.626l-0.017,4.54
		l7.076,0.025l0.017-4.54c0.003-0.835-0.12-1.377-0.369-1.629c-0.251-0.251-0.807-0.408-1.671-0.472l0.002-0.433l6.462,0.022
		l-0.002,0.433c-0.857,0.057-1.414,0.211-1.668,0.46c-0.255,0.25-0.384,0.792-0.387,1.626l-0.037,10.366
		c-0.003,0.845,0.122,1.387,0.375,1.625s0.809,0.396,1.665,0.476l-0.001,0.433l-6.462-0.023l0.001-0.432
		c0.918-0.088,1.489-0.252,1.714-0.493c0.225-0.24,0.338-0.862,0.342-1.866l0.016-4.53l-7.077-0.024l-0.016,4.802
		c-0.003,0.845,0.123,1.389,0.379,1.631c0.256,0.243,0.809,0.399,1.661,0.471l-0.001,0.432l-6.463-0.022L124.686,189.583z"/>
	<path clip-path="url(#SVGID_2_)" fill="#5A4A42" d="M145.156,176.4c1.438-1.367,3.204-2.048,5.298-2.04
		c2.1,0.007,3.865,0.704,5.294,2.089c1.55,1.5,2.321,3.494,2.312,5.981c-0.009,2.526-0.821,4.534-2.433,6.023
		c-1.447,1.329-3.19,1.99-5.23,1.983c-2.185-0.009-3.996-0.755-5.432-2.238c-1.458-1.514-2.183-3.455-2.174-5.822
		C142.799,179.888,143.587,177.897,145.156,176.4 M146.857,187.825c0.961,1.175,2.144,1.766,3.549,1.77
		c1.374,0.006,2.551-0.561,3.531-1.699s1.475-2.964,1.484-5.474c0.008-2.541-0.479-4.378-1.462-5.512
		c-0.984-1.134-2.151-1.703-3.502-1.708c-1.398-0.005-2.583,0.577-3.555,1.745c-0.973,1.169-1.463,2.981-1.472,5.438
		C145.421,184.836,145.897,186.649,146.857,187.825"/>
	<path clip-path="url(#SVGID_2_)" fill="#5A4A42" d="M160.339,174.724l13.176,0.047l0.11,3.96l-0.557-0.002
		c-0.269-1.244-0.613-2.056-1.033-2.433c-0.419-0.377-1.305-0.567-2.654-0.572l-1.297-0.005l-0.042,11.925
		c-0.003,0.896,0.135,1.454,0.415,1.67c0.279,0.217,0.894,0.359,1.841,0.431l-0.001,0.433l-6.793-0.023l0.001-0.433
		c0.987-0.072,1.602-0.232,1.846-0.48c0.243-0.249,0.367-0.874,0.371-1.878l0.041-11.651l-1.309-0.006
		c-1.29-0.005-2.168,0.179-2.636,0.549c-0.467,0.369-0.822,1.181-1.061,2.431l-0.569-0.002L160.339,174.724z"/>
	<path clip-path="url(#SVGID_2_)" fill="#5A4A42" d="M175.259,189.763c0.858-0.088,1.414-0.239,1.669-0.453s0.384-0.759,0.387-1.634
		l0.037-10.365c0.003-0.827-0.12-1.368-0.369-1.623c-0.251-0.255-0.808-0.414-1.672-0.478l0.002-0.433l12.38,0.044l0.067,3.334
		l-0.592-0.002c-0.194-1.028-0.487-1.693-0.881-1.997c-0.394-0.303-1.271-0.457-2.638-0.462l-3.172-0.012
		c-0.343-0.001-0.555,0.054-0.635,0.163c-0.08,0.108-0.12,0.315-0.121,0.62l-0.019,5.198l3.595,0.014
		c0.994,0.004,1.628-0.142,1.901-0.436c0.275-0.293,0.498-0.888,0.667-1.786l0.546,0.002l-0.02,5.383l-0.546-0.002
		c-0.171-0.903-0.393-1.501-0.664-1.795c-0.272-0.292-0.9-0.441-1.888-0.444l-3.595-0.013l-0.021,5.769
		c-0.002,0.463,0.144,0.736,0.437,0.82c0.291,0.085,1.166,0.13,2.625,0.135c1.579,0.006,2.748-0.162,3.5-0.505
		c0.753-0.343,1.432-1.177,2.035-2.502l0.649,0.002l-1.072,3.934l-12.596-0.045L175.259,189.763z"/>
	<path clip-path="url(#SVGID_2_)" fill="#5A4A42" d="M190.425,189.817c0.858-0.088,1.414-0.239,1.669-0.453s0.384-0.759,0.387-1.634
		l0.037-10.365c0.003-0.827-0.12-1.368-0.369-1.623c-0.251-0.255-0.808-0.414-1.672-0.478l0.002-0.433l6.576,0.023l-0.002,0.433
		c-0.857,0.042-1.432,0.18-1.725,0.414s-0.44,0.738-0.443,1.512l-0.039,11.196c-0.001,0.257,0.041,0.461,0.128,0.609
		c0.087,0.147,0.279,0.242,0.574,0.28c0.175,0.023,0.359,0.04,0.553,0.048s0.557,0.014,1.088,0.016
		c2.073,0.007,3.476-0.159,4.205-0.498c0.73-0.338,1.439-1.208,2.129-2.608l0.594,0.002l-1.155,4.035l-12.537-0.045L190.425,189.817
		z"/>
</g>
</svg>
